<svg width="12" height="14" viewBox="0 0 12 14" fill="none" xmlns="http://www.w3.org/2000/svg">
<path d="M6.93105 3.5667C6.93088 3.39161 6.89622 3.21826 6.82905 3.05656C6.76188 2.89486 6.66352 2.74797 6.53958 2.62428C6.41565 2.5006 6.26857 2.40253 6.10673 2.33569C5.9449 2.26884 5.77148 2.23453 5.59639 2.2347L0.263052 2.23937L0.261719 0.906035L5.59505 0.901369C5.94524 0.901018 6.29207 0.969647 6.61574 1.10334C6.93941 1.23702 7.23358 1.43316 7.48145 1.68053C7.72932 1.92791 7.92604 2.22168 8.06038 2.54508C8.19471 2.86848 8.26403 3.21518 8.26438 3.56537L8.27105 10.436L10.7911 7.9107L11.7351 8.85204L7.49638 13.0987L3.24972 8.86004L4.19172 7.9167L6.93772 10.6567L6.93105 3.5667Z" fill="#37AFA2"/>
</svg>
