<svg width="12" height="12" viewBox="0 0 12 12" fill="none" xmlns="http://www.w3.org/2000/svg">
<path d="M10.7504 2H9.66708V2.66667H10.6671V10H1.33374V2.66667H2.33374V2H1.25041C1.17249 2.0013 1.09559 2.01794 1.0241 2.04897C0.952611 2.08 0.887935 2.1248 0.833765 2.18083C0.779595 2.23686 0.736994 2.30301 0.708393 2.3755C0.679793 2.44799 0.665754 2.52541 0.667078 2.60333V10.0633C0.665754 10.1413 0.679793 10.2187 0.708393 10.2912C0.736994 10.3637 0.779595 10.4298 0.833765 10.4858C0.887935 10.5419 0.952611 10.5867 1.0241 10.6177C1.09559 10.6487 1.17249 10.6654 1.25041 10.6667H10.7504C10.8283 10.6654 10.9052 10.6487 10.9767 10.6177C11.0482 10.5867 11.1129 10.5419 11.1671 10.4858C11.2212 10.4298 11.2638 10.3637 11.2924 10.2912C11.321 10.2187 11.3351 10.1413 11.3337 10.0633V2.60333C11.3351 2.52541 11.321 2.44799 11.2924 2.3755C11.2638 2.30301 11.2212 2.23686 11.1671 2.18083C11.1129 2.1248 11.0482 2.08 10.9767 2.04897C10.9052 2.01794 10.8283 2.0013 10.7504 2Z" fill="#BDBDBD"/>
<path d="M2.66699 4.6665H3.33366V5.33317H2.66699V4.6665Z" fill="#BDBDBD"/>
<path d="M4.66699 4.6665H5.33366V5.33317H4.66699V4.6665Z" fill="#BDBDBD"/>
<path d="M6.66699 4.6665H7.33366V5.33317H6.66699V4.6665Z" fill="#BDBDBD"/>
<path d="M8.66699 4.6665H9.33366V5.33317H8.66699V4.6665Z" fill="#BDBDBD"/>
<path d="M2.66699 6.3335H3.33366V7.00016H2.66699V6.3335Z" fill="#BDBDBD"/>
<path d="M4.66699 6.3335H5.33366V7.00016H4.66699V6.3335Z" fill="#BDBDBD"/>
<path d="M6.66699 6.3335H7.33366V7.00016H6.66699V6.3335Z" fill="#BDBDBD"/>
<path d="M8.66699 6.3335H9.33366V7.00016H8.66699V6.3335Z" fill="#BDBDBD"/>
<path d="M2.66699 8H3.33366V8.66667H2.66699V8Z" fill="#BDBDBD"/>
<path d="M4.66699 8H5.33366V8.66667H4.66699V8Z" fill="#BDBDBD"/>
<path d="M6.66699 8H7.33366V8.66667H6.66699V8Z" fill="#BDBDBD"/>
<path d="M8.66699 8H9.33366V8.66667H8.66699V8Z" fill="#BDBDBD"/>
<path d="M3.33333 3.33317C3.42174 3.33317 3.50652 3.29805 3.56904 3.23554C3.63155 3.17303 3.66667 3.08824 3.66667 2.99984V0.999837C3.66667 0.911432 3.63155 0.826647 3.56904 0.764135C3.50652 0.701623 3.42174 0.666504 3.33333 0.666504C3.24493 0.666504 3.16014 0.701623 3.09763 0.764135C3.03512 0.826647 3 0.911432 3 0.999837V2.99984C3 3.08824 3.03512 3.17303 3.09763 3.23554C3.16014 3.29805 3.24493 3.33317 3.33333 3.33317Z" fill="#BDBDBD"/>
<path d="M8.66634 3.33317C8.75475 3.33317 8.83953 3.29805 8.90204 3.23554C8.96456 3.17303 8.99967 3.08824 8.99967 2.99984V0.999837C8.99967 0.911432 8.96456 0.826647 8.90204 0.764135C8.83953 0.701623 8.75475 0.666504 8.66634 0.666504C8.57794 0.666504 8.49315 0.701623 8.43064 0.764135C8.36813 0.826647 8.33301 0.911432 8.33301 0.999837V2.99984C8.33301 3.08824 8.36813 3.17303 8.43064 3.23554C8.49315 3.29805 8.57794 3.33317 8.66634 3.33317Z" fill="#BDBDBD"/>
<path d="M4.33301 2H7.66634V2.66667H4.33301V2Z" fill="#BDBDBD"/>
</svg>
