<svg width="15" height="13" viewBox="0 0 15 13" fill="none" xmlns="http://www.w3.org/2000/svg">
<path d="M11.7077 2.24998C11.6102 1.76961 11.3495 1.33773 10.97 1.02752C10.5905 0.717313 10.1154 0.547852 9.6252 0.547852C9.13502 0.547852 8.65992 0.717313 8.28039 1.02752C7.90086 1.33773 7.64024 1.76961 7.5427 2.24998H1.1252C1.01248 2.24998 0.904378 2.29476 0.824675 2.37446C0.744972 2.45416 0.700195 2.56226 0.700195 2.67498C0.700195 2.7877 0.744972 2.8958 0.824675 2.9755C0.904378 3.05521 1.01248 3.09998 1.1252 3.09998H7.5427C7.64024 3.58035 7.90086 4.01223 8.28039 4.32244C8.65992 4.63265 9.13502 4.80211 9.6252 4.80211C10.1154 4.80211 10.5905 4.63265 10.97 4.32244C11.3495 4.01223 11.6102 3.58035 11.7077 3.09998H13.8752C13.9879 3.09998 14.096 3.05521 14.1757 2.9755C14.2554 2.8958 14.3002 2.7877 14.3002 2.67498C14.3002 2.56226 14.2554 2.45416 14.1757 2.37446C14.096 2.29476 13.9879 2.24998 13.8752 2.24998H11.7077ZM9.6252 3.94998C9.45776 3.94998 9.29196 3.917 9.13727 3.85293C8.98258 3.78885 8.84203 3.69494 8.72363 3.57654C8.60524 3.45815 8.51132 3.31759 8.44725 3.1629C8.38317 3.00821 8.3502 2.84242 8.3502 2.67498C8.3502 2.50755 8.38317 2.34175 8.44725 2.18706C8.51132 2.03237 8.60524 1.89182 8.72363 1.77342C8.84203 1.65503 8.98258 1.56111 9.13727 1.49704C9.29196 1.43296 9.45776 1.39998 9.6252 1.39998C9.96335 1.39998 10.2876 1.53431 10.5268 1.77342C10.7659 2.01253 10.9002 2.33683 10.9002 2.67498C10.9002 3.01313 10.7659 3.33743 10.5268 3.57654C10.2876 3.81565 9.96335 3.94998 9.6252 3.94998ZM7.4577 9.89998C7.36015 9.41961 7.09954 8.98773 6.72001 8.67752C6.34048 8.36731 5.86537 8.19785 5.3752 8.19785C4.88502 8.19785 4.40992 8.36731 4.03039 8.67752C3.65086 8.98773 3.39024 9.41961 3.2927 9.89998H1.1252C1.01248 9.89998 0.904378 9.94476 0.824675 10.0245C0.744972 10.1042 0.700195 10.2123 0.700195 10.325C0.700195 10.4377 0.744972 10.5458 0.824675 10.6255C0.904378 10.7052 1.01248 10.75 1.1252 10.75H3.2927C3.39024 11.2304 3.65086 11.6622 4.03039 11.9724C4.40992 12.2827 4.88502 12.4521 5.3752 12.4521C5.86537 12.4521 6.34048 12.2827 6.72001 11.9724C7.09954 11.6622 7.36015 11.2304 7.4577 10.75H13.8752C13.9879 10.75 14.096 10.7052 14.1757 10.6255C14.2554 10.5458 14.3002 10.4377 14.3002 10.325C14.3002 10.2123 14.2554 10.1042 14.1757 10.0245C14.096 9.94476 13.9879 9.89998 13.8752 9.89998H7.4577ZM5.3752 11.6C5.03704 11.6 4.71274 11.4657 4.47363 11.2265C4.23453 10.9874 4.1002 10.6631 4.1002 10.325C4.1002 9.98683 4.23453 9.66253 4.47363 9.42342C4.71274 9.18431 5.03704 9.04998 5.3752 9.04998C5.71335 9.04998 6.03765 9.18431 6.27676 9.42342C6.51587 9.66253 6.6502 9.98683 6.6502 10.325C6.6502 10.6631 6.51587 10.9874 6.27676 11.2265C6.03765 11.4657 5.71335 11.6 5.3752 11.6Z" fill="#25283D"/>
</svg>
