<svg width="21" height="21" viewBox="0 0 21 21" fill="none" xmlns="http://www.w3.org/2000/svg">
<path d="M13.8825 14.7813L15.6325 13.0313C15.8682 12.7985 16.1664 12.6392 16.4909 12.5726C16.8154 12.506 17.1523 12.5351 17.4606 12.6563L19.5934 13.5078C19.905 13.6343 20.1721 13.8502 20.3612 14.1282C20.5503 14.4063 20.6528 14.7341 20.6559 15.0703V18.9766C20.6541 19.2053 20.606 19.4313 20.5146 19.641C20.4231 19.8507 20.2902 20.0396 20.1237 20.1966C19.9573 20.3535 19.7609 20.4751 19.5462 20.5541C19.3315 20.6331 19.1031 20.6679 18.8747 20.6563C3.92935 19.7266 0.913725 7.07034 0.343412 2.22659C0.316938 1.98873 0.341127 1.74796 0.414387 1.52012C0.487648 1.29228 0.60832 1.08253 0.768465 0.90467C0.928609 0.726813 1.1246 0.584879 1.34354 0.488207C1.56247 0.391534 1.7994 0.342313 2.03872 0.343782H5.81216C6.14889 0.344779 6.47762 0.446491 6.75606 0.635836C7.03451 0.825181 7.24995 1.0935 7.37466 1.40628L8.22622 3.53909C8.35142 3.84618 8.38336 4.18335 8.31806 4.50848C8.25276 4.83361 8.0931 5.13229 7.85904 5.36722L6.10904 7.11722C6.10904 7.11722 7.11685 13.9375 13.8825 14.7813Z" fill="#37AFA2"/>
</svg>
