<svg width="35" height="32" viewBox="0 0 35 32" fill="none" xmlns="http://www.w3.org/2000/svg">
<path d="M20.3496 24.4749C20.35 26.0541 20.875 27.5885 21.8422 28.8368C22.8094 30.0852 24.1639 30.9769 25.6929 31.3718C27.222 31.7667 28.8389 31.6424 30.2896 31.0185C31.7403 30.3946 32.9426 29.3064 33.7077 27.9249C34.4727 26.5433 34.7571 24.9468 34.5162 23.3861C34.2753 21.8254 33.5226 20.3889 32.3766 19.3025C31.2306 18.216 29.756 17.541 28.1847 17.3836C26.6134 17.2262 25.0343 17.5953 23.6955 18.4329C24.1545 15.6743 25.0715 13.0117 26.4087 10.5555C28.2583 7.19253 30.6153 4.82418 32.7585 2.68383C33.0261 2.41625 33.1764 2.05334 33.1764 1.67493C33.1764 1.29652 33.0261 0.933605 32.7585 0.666029C32.4909 0.398453 32.128 0.248129 31.7496 0.248129C31.3712 0.248129 31.0083 0.398453 30.7407 0.666029L30.7093 0.70023C28.5804 2.82918 25.9669 5.44263 23.9092 9.18183C21.8316 12.9666 20.3496 17.8344 20.3496 24.4749ZM3.7455 18.4329C5.08426 17.5953 6.66336 17.2262 8.2347 17.3836C9.80603 17.541 11.2806 18.216 12.4266 19.3025C13.5726 20.3889 14.3253 21.8254 14.5662 23.3861C14.8071 24.9468 14.5227 26.5433 13.7577 27.9249C12.9926 29.3064 11.7903 30.3946 10.3396 31.0185C8.88885 31.6424 7.27195 31.7667 5.74292 31.3718C4.21389 30.9769 2.85938 30.0852 1.89221 28.8368C0.92503 27.5885 0.399994 26.0541 0.399597 24.4749C0.399597 17.8344 1.8816 12.9666 3.9621 9.18183C6.01695 5.44263 8.6304 2.82633 10.7565 0.70023L10.7907 0.666029C11.0583 0.398453 11.4212 0.248129 11.7996 0.248129C12.178 0.248129 12.5409 0.398453 12.8085 0.666029C13.0761 0.933605 13.2264 1.29652 13.2264 1.67493C13.2264 2.05334 13.0761 2.41625 12.8085 2.68383C10.6653 4.82418 8.30835 7.18968 6.4587 10.5555C5.12113 13.0126 4.20407 15.6761 3.7455 18.4358V18.4329Z" fill="#37AFA2" fill-opacity="0.5"/>
</svg>
