<svg width="20" height="20" viewBox="0 0 20 20" fill="none" xmlns="http://www.w3.org/2000/svg">
<path d="M19.8438 18.8278L14.4158 13.3998C15.7202 11.8338 16.3706 9.82529 16.2319 7.79199C16.0931 5.7587 15.1757 3.85719 13.6706 2.48303C12.1656 1.10887 10.1887 0.367859 8.15116 0.414155C6.11366 0.460451 4.17245 1.29049 2.73134 2.73159C1.29024 4.17269 0.460207 6.11391 0.413911 8.15141C0.367615 10.1889 1.10862 12.1658 2.48278 13.6709C3.85694 15.176 5.75845 16.0933 7.79175 16.2321C9.82504 16.3709 11.8336 15.7204 13.3995 14.4161L18.8275 19.8441L19.8438 18.8278ZM1.87507 8.34406C1.87507 7.06466 2.25445 5.814 2.96525 4.75022C3.67604 3.68644 4.68633 2.85732 5.86833 2.36772C7.05034 1.87811 8.35099 1.75001 9.60581 1.99961C10.8606 2.24921 12.0132 2.86529 12.9179 3.76996C13.8226 4.67464 14.4387 5.82726 14.6883 7.08207C14.9379 8.33689 14.8098 9.63754 14.3202 10.8195C13.8306 12.0016 13.0014 13.0118 11.9377 13.7226C10.8739 14.4334 9.62322 14.8128 8.34382 14.8128C6.62878 14.8109 4.98454 14.1288 3.77182 12.9161C2.55911 11.7033 1.87697 10.0591 1.87507 8.34406Z" fill="#D6D7DB"/>
</svg>
