<svg width="115" height="9" viewBox="0 0 115 9" fill="none" xmlns="http://www.w3.org/2000/svg">
<path d="M2.49508 4.06881C3.39546 4.06881 4.33872 4.02643 5.2391 3.98404C5.62498 3.98404 5.96798 3.94166 6.35386 3.94166C7.98312 3.85689 9.61239 3.77213 11.2417 3.68736C13.2139 3.60259 15.1433 3.47544 17.1156 3.39068C19.9025 3.22114 22.6894 3.09399 25.4763 2.92446C26.1194 2.88207 26.7625 2.88207 27.4057 2.83969C29.0349 2.75492 30.6642 2.67016 32.2934 2.62777C33.9227 2.54301 35.552 2.45824 37.1812 2.41586C37.8244 2.37347 38.4675 2.33109 39.1106 2.33109C41.6831 2.24632 44.2985 2.16156 46.8711 2.07679C48.4575 2.03441 50.0438 1.99202 51.6731 1.90725C52.3162 1.90725 52.9165 1.86487 53.5596 1.86487C56.0464 1.82249 58.576 1.7801 61.0628 1.73772C63.5496 1.69534 65.9935 1.65295 68.4802 1.61057C69.1234 1.61057 69.7665 1.61057 70.4525 1.61057C72.0818 1.61057 73.6682 1.61057 75.2974 1.61057C77.8271 1.61057 80.3138 1.61057 82.8435 1.56819C83.6581 1.56819 84.4727 1.56819 85.2874 1.56819C87.0024 1.56819 88.7174 1.56819 90.4324 1.56819C90.561 1.56819 90.7325 1.56819 90.8612 1.56819C87.0024 1.61057 83.1007 1.65295 79.242 1.73772C77.6127 1.7801 76.0263 1.7801 74.397 1.82249C73.711 1.82249 72.9822 1.82249 72.2962 1.86487C69.938 1.90725 67.6227 1.99202 65.2646 2.03441C62.5634 2.11917 59.8623 2.16156 57.1612 2.24632C56.6895 2.24632 56.2608 2.28871 55.7891 2.28871C54.3314 2.37347 52.9165 2.41586 51.4587 2.50062C48.5432 2.62777 45.6277 2.75492 42.7122 2.88207C42.2834 2.88207 41.8546 2.92446 41.4259 2.96684C40.011 3.05161 38.5532 3.17876 37.1384 3.26352C34.5658 3.43306 32.0362 3.60259 29.4637 3.77213C28.7777 3.81451 28.0488 3.89928 27.3628 3.94166C25.7335 4.06881 24.1043 4.19596 22.475 4.36549C20.417 4.53503 18.3161 4.70456 16.2581 4.8741C13.3854 5.1284 10.4699 5.3827 7.59725 5.637C6.91124 5.67938 6.22524 5.76415 5.49635 5.80653C4.25297 5.93368 3.00958 6.06083 1.7662 6.18798C1.63757 6.18798 1.50895 6.27275 1.50895 6.44228C1.50895 6.56943 1.63757 6.69658 1.7662 6.69658C2.23783 6.69658 2.66658 6.73897 3.13821 6.73897C3.05246 6.95088 3.00958 7.07803 3.00958 7.20519C3.00958 7.6714 3.39546 8.09524 3.90997 8.09524C7.46862 7.88332 10.9844 7.62902 14.5431 7.45949C17.6301 7.33234 20.7171 7.1628 23.8041 7.03565C27.1913 6.86612 30.6213 6.69658 34.0085 6.56943C35.0803 6.52705 36.1522 6.48467 37.2241 6.3999C37.5242 6.3999 37.8244 6.35752 38.1674 6.35752C43.6554 6.23037 49.1435 6.06083 54.6315 5.93368C57.547 5.84891 60.5054 5.76415 63.4209 5.72176C64.4928 5.67938 65.5218 5.67938 66.5937 5.637C72.2104 5.55223 77.8271 5.46746 83.4437 5.3827C85.8448 5.34031 88.2458 5.29793 90.6468 5.25555C92.7048 5.21316 94.7628 5.21316 96.8208 5.1284C98.5359 5.08601 100.208 5.00125 101.923 4.95886C102.781 4.91648 103.638 4.91648 104.453 4.8741C106.382 4.74695 108.311 4.61979 110.241 4.49264C110.112 4.66218 110.112 4.91648 110.155 5.08601C110.198 5.29793 110.327 5.46746 110.541 5.55223C110.712 5.637 110.97 5.72176 111.141 5.637C111.57 5.46746 111.999 5.29793 112.385 5.1284C112.385 5.1284 112.385 5.1284 112.342 5.1284C112.385 5.1284 112.385 5.08601 112.427 5.08601C112.47 5.08601 112.513 5.04363 112.513 5.04363H112.47C112.685 4.95886 112.899 4.8741 113.156 4.74695C113.371 4.66218 113.628 4.53503 113.842 4.45026C114.1 4.32311 114.314 4.19596 114.571 4.06881C114.828 3.94166 115 3.60259 115 3.30591C115 3.13637 114.957 3.00922 114.871 2.83969C114.786 2.67016 114.571 2.45824 114.357 2.41586C114.142 2.37347 113.928 2.33109 113.714 2.33109C113.671 2.33109 113.628 2.33109 113.585 2.33109C113.456 2.33109 113.285 2.33109 113.156 2.37347C112.813 2.41586 112.513 2.45824 112.17 2.45824C111.913 2.45824 111.656 2.50062 111.356 2.50062C110.627 2.54301 109.941 2.58539 109.212 2.67016C109.04 2.67016 108.826 2.71254 108.654 2.71254C108.74 2.62777 108.783 2.54301 108.783 2.45824C108.826 2.37347 108.826 2.28871 108.826 2.20394C108.826 2.16156 108.826 2.07679 108.869 2.03441C108.869 1.94964 108.869 1.86487 108.826 1.82249C108.826 1.82249 108.869 1.82249 108.869 1.7801C108.997 1.69534 109.126 1.61057 109.212 1.44104C109.298 1.31389 109.34 1.14435 109.34 0.974819C109.34 0.805285 109.298 0.678135 109.212 0.508601C109.169 0.466218 109.126 0.381451 109.083 0.339068C108.955 0.211917 108.826 0.169534 108.697 0.12715C108.44 0.0423834 108.14 0 107.84 0C107.583 0 107.368 0 107.111 0C106.768 0 106.425 0 106.082 0C105.61 0 105.096 0 104.624 0C103.338 0 102.052 0 100.765 0C99.5649 0 98.3215 0 97.121 0C96.0062 0 94.9343 0 93.8196 0C89.4034 0 85.0301 0.0423834 80.614 0.0847669C77.3126 0.12715 74.0112 0.169534 70.7098 0.169534C69.252 0.169534 67.7514 0.211917 66.2936 0.254301C62.9922 0.339068 59.6908 0.381451 56.3894 0.466218C55.4461 0.466218 54.5029 0.508601 53.5596 0.508601C53.0022 0.508601 52.4877 0.550985 51.9304 0.550985C48.6718 0.678135 45.4133 0.805285 42.1548 0.932436C41.1686 0.974819 40.1825 1.0172 39.1535 1.05959C38.5961 1.05959 38.0387 1.10197 37.4814 1.14435C34.2228 1.31389 31.0072 1.48342 27.7487 1.65295C26.0765 1.73772 24.4044 1.82249 22.7322 1.94964C19.8596 2.11917 16.9869 2.28871 14.1572 2.50062C11.6704 2.67016 9.18363 2.79731 6.69686 2.92446C6.31099 2.96684 5.92511 2.96684 5.49635 3.00922C4.85322 3.05161 4.21009 3.05161 3.56696 3.09399C3.00958 3.26352 2.40933 3.26352 1.85195 3.26352C1.80907 3.09399 1.63757 2.96684 1.50895 3.00922C1.12307 3.00922 0.780066 3.05161 0.394188 3.09399C0.222687 3.13637 0.0511852 3.22114 0.00830988 3.39068C-0.0345655 3.60259 0.0940606 3.81451 0.265562 3.85689C0.437063 3.89928 0.608565 3.94166 0.780066 3.98404C0.951568 4.02643 1.08019 4.02643 1.2517 4.02643C1.68045 4.06881 2.06633 4.06881 2.49508 4.06881ZM102.823 2.71254C103.338 2.71254 103.895 2.71254 104.41 2.71254C104.453 2.83969 104.538 2.92446 104.624 3.00922C104.41 3.00922 104.195 3.05161 104.024 3.05161C103.638 3.05161 103.252 3.09399 102.866 3.09399C101.151 3.13637 99.4791 3.22114 97.7641 3.26352C96.9923 3.30591 96.2206 3.34829 95.4488 3.34829C94.2483 3.34829 93.0049 3.39068 91.8044 3.39068C89.0175 3.43306 86.2735 3.47544 83.4866 3.51783C78.0843 3.60259 72.7249 3.68736 67.3226 3.77213C63.4638 3.81451 59.605 3.94166 55.7463 4.06881C49.9581 4.23834 44.127 4.36549 38.3389 4.53503C37.1812 4.57741 36.0236 4.61979 34.866 4.70456C31.5646 4.8741 28.2632 5.00125 24.9618 5.17078C21.7461 5.34031 18.4876 5.46746 15.2719 5.637C14.9718 5.637 14.6717 5.67938 14.3716 5.67938C15.2291 5.59461 16.1294 5.55223 16.9869 5.46746C20.0311 5.25555 23.0752 5.00125 26.1194 4.78933C27.1913 4.70456 28.2632 4.6198 29.2922 4.53503C29.8496 4.49264 30.4069 4.45026 30.9214 4.45026C34.1371 4.28073 37.3099 4.06881 40.4826 3.89928C41.0829 3.85689 41.726 3.81451 42.3263 3.77213C43.2267 3.72974 44.127 3.68736 44.9846 3.68736C48.2431 3.56021 51.5016 3.43306 54.7601 3.30591C55.489 3.26352 56.2179 3.26352 56.9039 3.22114C57.0754 3.22114 57.2898 3.22114 57.4613 3.22114C57.9758 3.22114 58.4903 3.22114 58.9619 3.17876C62.2204 3.09399 65.5218 3.05161 68.7804 2.96684C70.281 2.92446 71.7816 2.88207 73.2823 2.88207C78.1272 2.83969 83.015 2.79731 87.8599 2.75492C92.9192 2.75492 97.8927 2.71254 102.823 2.71254Z" fill="#37AFA2"/>
</svg>
