<svg width="39" height="39" viewBox="0 0 39 39" fill="none" xmlns="http://www.w3.org/2000/svg">
<circle cx="19.5" cy="19.5" r="19.5" fill="#686868"/>
<path d="M32 20C32 13.3708 26.6248 8 20 8C13.3708 8 8 13.3708 8 20C8 25.988 12.3868 30.953 18.125 31.8522V23.4695H15.0778V20.0007H18.125V17.3555C18.125 14.3488 19.9138 12.6883 22.6558 12.6883C23.969 12.6883 25.3438 12.9223 25.3438 12.9223V15.875H23.828C22.34 15.875 21.875 16.8013 21.875 17.75V20H25.2028L24.668 23.4688H21.875V31.8515C27.6087 30.9522 32 25.9872 32 19.9992V20Z" fill="#C6C6C6"/>
</svg>
