<svg width="39" height="39" viewBox="0 0 39 39" fill="none" xmlns="http://www.w3.org/2000/svg">
<circle cx="19.5" cy="19.5" r="19.5" fill="#686868"/>
<path d="M19.5024 29.6711C16.7349 29.6711 16.4087 29.6565 15.3287 29.6092C14.4865 29.5816 13.6552 29.4104 12.8706 29.103C12.1991 28.8417 11.5894 28.4436 11.08 27.9341C10.5707 27.4245 10.1729 26.8146 9.91182 26.1431C9.61629 25.3557 9.45689 24.5237 9.44044 23.6827C9.37744 22.605 9.37744 22.2517 9.37744 19.5056C9.37744 16.7302 9.39207 16.4062 9.44044 15.3319C9.45725 14.4921 9.61664 13.6612 9.91182 12.8749C10.1726 12.2025 10.5707 11.5919 11.0807 11.0821C11.5907 10.5722 12.2015 10.1743 12.8739 9.91387C13.6599 9.61709 14.491 9.45728 15.3309 9.44137C16.4053 9.38062 16.7586 9.38062 19.5024 9.38062C22.2924 9.38062 22.6131 9.39524 23.6762 9.44137C24.5177 9.45712 25.3524 9.61687 26.1399 9.91387C26.8122 10.1746 27.4228 10.5726 27.9328 11.0824C28.4428 11.5922 28.841 12.2027 29.1021 12.8749C29.4024 13.6736 29.5633 14.5174 29.5757 15.369C29.6387 16.4467 29.6387 16.7989 29.6387 19.5439C29.6387 22.2889 29.6229 22.6489 29.5757 23.7142C29.5589 24.556 29.3991 25.3887 29.1032 26.1769C28.8415 26.8489 28.4429 27.4591 27.9328 27.9688C27.4227 28.4786 26.8121 28.8767 26.1399 29.1379C25.3524 29.4326 24.5211 29.5924 23.6807 29.6092C22.6063 29.6711 22.2542 29.6711 19.5024 29.6711ZM19.4642 11.1615C16.7124 11.1615 16.4267 11.175 15.3523 11.2234C14.7107 11.2318 14.0752 11.3501 13.4736 11.5732C13.0347 11.7414 12.636 11.9997 12.3031 12.3315C11.9702 12.6632 11.7106 13.061 11.5408 13.4992C11.3158 14.1067 11.1977 14.7491 11.1909 15.3971C11.1313 16.4872 11.1313 16.773 11.1313 19.5056C11.1313 22.2056 11.1414 22.533 11.1909 23.6164C11.2011 24.2576 11.3192 24.8932 11.5408 25.4951C11.8851 26.3805 12.5871 27.0802 13.4747 27.42C14.0756 27.6445 14.7109 27.7629 15.3523 27.7699C16.4413 27.8329 16.7282 27.8329 19.4642 27.8329C22.2238 27.8329 22.5096 27.8194 23.5749 27.7699C24.2166 27.7621 24.8522 27.6437 25.4537 27.42C25.8902 27.2505 26.2866 26.992 26.6178 26.661C26.949 26.33 27.2077 25.9338 27.3774 25.4974C27.6024 24.8899 27.7206 24.2464 27.7273 23.5984H27.7397C27.7881 22.5229 27.7881 22.236 27.7881 19.4876C27.7881 16.7392 27.7757 16.4501 27.7273 15.3757C27.7171 14.735 27.5989 14.1006 27.3774 13.4992C27.2081 13.0622 26.9496 12.6653 26.6184 12.3337C26.2871 12.0021 25.8905 11.7431 25.4537 11.5732C24.8523 11.349 24.2167 11.2306 23.5749 11.2234C22.4871 11.1615 22.2024 11.1615 19.4642 11.1615ZM19.5024 24.702C18.4737 24.7027 17.4679 24.3982 16.6122 23.8272C15.7565 23.2562 15.0894 22.4442 14.6952 21.494C14.301 20.5438 14.1974 19.498 14.3976 18.489C14.5978 17.4799 15.0928 16.5529 15.8199 15.8251C16.547 15.0974 17.4736 14.6016 18.4825 14.4006C19.4914 14.1995 20.5372 14.3021 21.4878 14.6955C22.4383 15.0889 23.2509 15.7553 23.8227 16.6105C24.3944 17.4657 24.6997 18.4713 24.6999 19.5C24.6982 20.8783 24.1501 22.1998 23.1759 23.1748C22.2017 24.1498 20.8808 24.699 19.5024 24.702ZM19.5024 16.1227C18.8349 16.1227 18.1824 16.3207 17.6274 16.6915C17.0724 17.0624 16.6398 17.5895 16.3843 18.2062C16.1289 18.8229 16.0621 19.5015 16.1923 20.1562C16.3225 20.8109 16.644 21.4122 17.116 21.8842C17.588 22.3562 18.1893 22.6777 18.844 22.8079C19.4987 22.9381 20.1773 22.8713 20.794 22.6158C21.4107 22.3604 21.9378 21.9278 22.3087 21.3728C22.6795 20.8178 22.8774 20.1653 22.8774 19.4977C22.8754 18.6033 22.5191 17.746 21.8866 17.1136C21.2541 16.4811 20.3969 16.1248 19.5024 16.1227ZM24.9024 15.3206C24.7432 15.32 24.5856 15.2881 24.4387 15.2266C24.2918 15.1651 24.1584 15.0753 24.0462 14.9622C23.8196 14.7339 23.693 14.425 23.6942 14.1034C23.6954 13.7817 23.8243 13.4737 24.0526 13.2471C24.2809 13.0205 24.5898 12.8939 24.9114 12.8951C25.2331 12.8963 25.5411 13.0252 25.7677 13.2535C25.9943 13.4818 26.1209 13.7907 26.1197 14.1124C26.1185 14.434 25.9896 14.742 25.7613 14.9686C25.533 15.1952 25.2241 15.3218 24.9024 15.3206Z" fill="#C6C6C6"/>
</svg>
