<svg width="50" height="50" viewBox="0 0 50 50" fill="none" xmlns="http://www.w3.org/2000/svg">
<path d="M28.2173 21.7831C26.5108 20.0774 24.1968 19.1191 21.784 19.1191C19.3711 19.1191 17.0571 20.0774 15.3506 21.7831L8.9152 28.2165C7.2087 29.923 6.25 32.2375 6.25 34.6508C6.25 37.0642 7.2087 39.3787 8.9152 41.0852C10.6217 42.7917 12.9362 43.7504 15.3496 43.7504C17.7629 43.7504 20.0775 42.7917 21.784 41.0852L25.0006 37.8685" stroke="#37AFA2" stroke-width="2" stroke-linecap="round" stroke-linejoin="round"/>
<path d="M21.7842 28.2166C23.4907 29.9223 25.8047 30.8805 28.2175 30.8805C30.6303 30.8805 32.9444 29.9223 34.6508 28.2166L41.0863 21.7832C42.7928 20.0767 43.7515 17.7622 43.7515 15.3488C43.7515 12.9355 42.7928 10.621 41.0863 8.91447C39.3798 7.20797 37.0652 6.24927 34.6519 6.24927C32.2385 6.24927 29.924 7.20797 28.2175 8.91447L25.0008 12.1311" stroke="#37AFA2" stroke-width="2" stroke-linecap="round" stroke-linejoin="round"/>
</svg>