<svg width="70" height="65" viewBox="0 0 70 65" fill="none" xmlns="http://www.w3.org/2000/svg">
<path d="M10.8615 22.9119C13.943 22.5596 17.0369 23.4615 20.1246 23.7363C23.9842 24.0797 27.9874 23.5065 31.7753 24.3083C35.5551 25.1611 39.3805 28.056 39.3936 31.9714C39.3899 33.3275 38.9279 34.6118 38.5248 35.8531C36.9094 40.505 35.243 45.1489 33.6196 49.8517C31.8384 54.895 27.8704 59.9089 21.8404 57.7646C17.3413 56.1731 16.5109 50.1468 16.0474 46.1087C15.7681 43.5604 14.8666 40.6537 12.4747 39.6008C11.5978 39.2026 10.6142 39.153 9.65453 38.9506C1.16697 36.8388 2.10713 23.837 10.8615 22.9119Z" fill="#88D1C9" fill-opacity="0.5"/>
<path d="M19.8233 12.9923C19.2576 14.9387 19.1963 17.3293 20.7605 18.67C21.6834 19.4407 22.9486 19.691 24.144 19.7216C30.3163 19.9576 41.7845 14.0309 35.788 6.67395C30.9243 0.746652 21.4295 7.39981 19.8233 12.9923Z" fill="#88D1C9" fill-opacity="0.5"/>
<path d="M44.6893 11.1449C42.5909 13.2165 41.6921 16.6239 42.9979 19.2808C43.2397 19.7361 43.5833 20.2073 44.0018 20.5338C44.659 21.0019 45.5758 21.1455 46.4066 21.1712C49.6201 21.3091 52.8912 20.4125 55.6119 18.6992C57.2883 17.6572 58.8167 16.2269 59.5192 14.4063C60.2297 12.5347 59.9105 10.241 58.4483 8.91631C54.413 5.36243 48.0377 7.75577 44.6893 11.1449Z" fill="#88D1C9" fill-opacity="0.5"/>
<path d="M55.2702 22.8749C52.647 23.299 50.038 24.2993 48.312 26.3249C46.586 28.3505 46.1345 31.567 47.7398 33.6447C49.1223 35.4787 51.594 36.0223 53.8938 36.3302C56.8128 36.6829 59.9483 36.6521 62.5193 35.2284C65.0903 33.8048 66.8549 30.5329 65.7687 27.8061C63.8221 22.9095 60.187 22.1316 55.2702 22.8749Z" fill="#88D1C9" fill-opacity="0.5"/>
<path d="M42.6612 43.7525C40.9928 44.7436 39.5852 46.4016 39.384 48.3529C38.6431 55.7506 50.1685 54.7899 54.1612 52.2844C58.9037 49.3223 57.8726 43.5777 52.6525 41.9254C49.5746 40.9217 45.4248 42.0981 42.6612 43.7525Z" fill="#88D1C9" fill-opacity="0.5"/>
</svg>
